<svg width="188" height="51" viewBox="0 0 188 51" fill="none" xmlns="http://www.w3.org/2000/svg">
<g clip-path="url(#clip0)">
<path d="M0 18.8679L6.24799 29.3456L8.7423 26.9823L1.94204 16.9081L0 18.8679Z" fill="url(#paint0_linear)"/>
<path d="M92.7681 10.6331L92.5265 12.0143L95.5149 11.0563L95.1424 9.3645L92.7681 10.6331Z" fill="#0071B9"/>
<path d="M75.3562 1.2005L65.7405 12.1547L68.5388 11.3552L77.6936 0L75.3562 1.2005Z" fill="url(#paint1_linear)"/>
<path d="M126.797 16.1778L129.157 14.9283L128.483 20.7997L126.797 16.1778Z" fill="#1D2C5E"/>
<path d="M112.127 19.9429L114.225 20.3697L116.903 19.0784L114.579 18.217L112.127 19.9429Z" fill="#1D2C5E"/>
<path d="M39.7957 13.7087L40.1314 20.5127L43.0595 19.3375L42.183 12.4365L39.7957 13.7087Z" fill="url(#paint2_linear)"/>
<path d="M114.398 11.6783L112.041 12.9417L112.127 19.9429L114.499 18.7352L115.244 15.3464L114.398 11.6783Z" fill="url(#paint3_linear)"/>
<path d="M114.074 20.3894L111.479 43.2897L115.627 42.4768L116.44 19.1543L114.074 20.3894Z" fill="#312370"/>
<path d="M119.154 44.3875L119.228 47.493L127.191 50.0142L129.561 48.7662L121.747 42.7524L113.832 42.0618L111.479 43.2897L119.154 44.3875Z" fill="#21386E"/>
<path d="M89.6119 38.9254L91.569 37.8781L92.8164 40.1677L94.6608 39.1607L95.0281 42.179L106.606 44.2187L108.919 42.9547L92.9546 33.2914L81.6297 35.2196L79.4206 37.3053L89.6119 38.9254Z" fill="#21386E"/>
<path d="M85.9252 10.7498L83.6075 12.0168L79.4206 37.3052L81.7658 36.0949L85.7849 21.8959L85.9252 10.7498Z" fill="url(#paint4_linear)"/>
<path d="M67.4306 14.1391L65.5842 15.1162L65.7395 15.7278L70.1338 12.9547L68.2136 10.9077L65.7405 12.1547L67.4306 14.1391Z" fill="#1D2C5E"/>
<path d="M72.479 44.0107L53.5989 34.72L55.969 32.9399L74.8283 42.7503L72.479 44.0107Z" fill="#21386E"/>
<path d="M55.3731 9.43311L52.512 14.823L55.5352 13.9136L57.7168 8.17017L55.3731 9.43311Z" fill="#1D2C5E"/>
<path d="M29.4231 31.6996L27.0093 33.3456C27.0093 33.3456 27.5216 36.0211 28.1819 37.8823C28.8459 39.7501 30.4264 41.2505 30.4264 41.2505C31.4415 42.2363 32.6858 42.9537 34.074 43.3562C36.744 44.1196 39.7573 43.622 42.3441 41.9834C43.0205 41.5581 43.9386 40.8773 44.5028 40.34C41.9601 41.8729 29.4231 31.6996 29.4231 31.6996Z" fill="url(#paint5_linear)"/>
<path d="M42.3405 19.9579L44.5433 44.1L53.5438 42.7772L55.9519 41.5235L44.7823 18.5107L42.4844 19.2797L40.1314 20.5127L42.3405 19.9579Z" fill="#1D2C5E"/>
<path d="M8.59839 28.3433L18.6546 51L28.2084 47.9384L30.5412 46.3807L10.7114 25.7694L8.23003 27.2465L6.24799 29.3456L8.59839 28.3433Z" fill="url(#paint6_linear)"/>
<path d="M108.262 39.0327L108.397 40.1449C109.22 40.053 110.085 39.9472 110.825 39.6856C111.687 39.3924 113.561 38.5635 114.273 37.9529C114.006 38.0495 109.616 39.1798 108.262 39.0327Z" fill="#1D2C5E"/>
<path d="M74.4615 33.2475L74.82 35.0384C76.7538 34.7525 78.4137 34.0418 80.0456 33.0674C81.0696 32.4614 82.1939 31.5474 82.5487 31.3038C82.2983 31.4627 74.4615 33.2475 74.4615 33.2475Z" fill="#1D2C5E"/>
<path d="M21.2689 48.8519L20.5223 47.2039L10.9877 26.0641L10.7919 25.6306L10.3586 25.8293L10.0692 25.9614L8.37186 26.7893C8.12144 26.3722 7.70581 25.6734 7.41694 25.1888L3.5791 18.7455L2.57535 17.0635L4.2358 16.0183C5.80637 15.0233 7.58008 14.104 9.50965 13.2855C13.3517 11.6597 17.2731 10.7998 20.8491 10.7998C22.0254 10.7998 23.1637 10.8943 24.2329 11.0791C26.0154 11.2809 27.6639 11.862 29.0257 12.7632C31.055 13.8904 32.6526 15.639 33.555 17.7076C34.2959 19.4077 34.4403 21.3989 33.9696 23.4644L33.6932 24.6778L34.7079 23.947C35.3916 23.4541 36.1345 23.0329 36.9159 22.6949C38.2667 22.1277 39.6643 21.8381 41.0645 21.8381C42.3898 21.8381 43.6429 22.0988 44.7896 22.6113L45.5289 22.9406L45.4546 22.139L45.133 18.6753L45.081 18.1262L44.5428 18.265L42.9275 18.681L42.6444 12.7833L54.4764 9.028L54.3808 13.6117L55.2718 13.8388L57.856 8.91909L65.5956 15.7381L65.9182 16.0235L66.2331 15.7293C67.2934 14.7394 68.5502 13.9451 69.968 13.3686L70.5603 13.1281L70.1546 12.6362L68.7591 10.9464L77.6448 0.771606L82.2983 7.66957L75.1749 11.4734L73.5929 12.3188L75.3889 12.3565C78.7659 12.4272 81.7564 13.8465 83.8081 16.3523L84.55 17.2612L85.0279 17.8449L84.2341 18.682L83.7047 19.2405L81.9247 21.1264L81.5938 21.4768L81.9518 21.7979L83.62 23.29L84.2653 23.8665L84.4035 23.0159L85.0435 19.0795L85.2072 18.0689L85.2124 18.0746L85.3807 17.0423L86.3362 11.2308H94.866H95.266L95.3336 10.8391L95.5003 9.84398H103.182L105.043 21.5192L105.164 22.2753L105.787 21.8257C106.541 21.2817 107.374 20.8343 108.263 20.4962C109.447 20.0523 110.666 19.8258 111.883 19.8258C113.331 19.8258 114.738 20.1581 115.954 20.7863C115.986 20.8095 116.032 20.8394 116.094 20.8642L116.672 21.0944L116.74 20.4792L116.879 19.2069L116.925 18.7899L116.512 18.6986L114.954 18.3528L114.878 12.2667L126.753 14.8633L127.645 19.2426L128.568 19.2606L129.488 15.4919L139.39 17.8841L129.27 48.182L122.029 45.9229L121.978 43.1322L121.97 42.7323L121.571 42.6765L114.345 41.6634L114.754 38.0149L114.851 37.1468L114.069 37.5447C113.699 37.7321 113.34 37.8895 113.002 38.0134C111.82 38.4572 110.61 38.6817 109.405 38.6817C109.057 38.6817 108.707 38.6626 108.366 38.6244L107.748 38.5558L107.845 39.1648L108.354 42.3736L97.8118 40.5264L97.2595 35.7646L97.0818 34.2385L96.3716 35.6026L95.1579 37.9277L92.9234 33.8297L92.2516 32.5987L92.0397 33.9819L91.5529 37.154L82.3134 35.7094L83.0298 31.3559L83.1935 30.3577L82.3201 30.8764C80.8077 31.7771 79.0709 32.4547 77.012 32.9487C76.2924 33.1231 75.5406 33.2439 74.7753 33.3069L74.342 33.343V33.775V41.9906L56.1462 33.057L55.4625 32.7221L55.463 33.4792L55.4755 41.1199L47.34 42.3106L46.9981 38.6415L46.9056 37.6598L46.1965 38.3504C45.1215 39.3955 43.9105 40.2058 42.5976 40.7591C41.2546 41.3263 39.869 41.6133 38.4803 41.6133C37.0936 41.6133 35.7906 41.3253 34.6071 40.7622C32.4146 39.7145 30.8331 37.8136 30.1546 35.4152C29.8315 34.2885 29.7437 33.0989 29.8938 31.8777L30.0544 30.5771L29.0994 31.4803C28.4261 32.1151 27.7008 32.7216 26.9423 33.2785L26.6851 33.4668L26.7662 33.7739L29.5068 44.2244L29.991 46.0788L28.156 46.6584L22.9959 48.2997L21.2689 48.8519V48.8519ZM23.585 20.7976C23.319 20.7976 23.0442 20.8219 22.7673 20.8714L22.4161 20.9385L21.8976 21.0376L22.054 21.5393L22.1558 21.8655L23.6313 26.6618L23.7788 27.1227L23.9981 27.8143L24.5436 27.3322L24.9057 27.0117C26.336 25.7348 26.8374 24.4383 26.5355 22.8033C26.3454 21.8221 25.5806 21.3334 25.1411 21.129C24.6818 20.9091 24.156 20.7976 23.585 20.7976V20.7976ZM63.1402 20.955L62.2181 21.8469L59.7892 24.1916L59.2603 24.7021L59.9487 24.9663L62.5537 25.965L63.3538 26.2711L63.1886 25.436C62.9735 24.3573 62.9174 23.2776 63.0182 22.2273L63.1402 20.955ZM73.7472 18.2882C72.7398 18.2882 71.7651 18.7187 71.0726 19.4681C70.0221 20.6077 69.8179 22.2887 70.565 23.6502L70.7629 24.0193L71.0814 24.6092L71.5298 24.1106L71.8181 23.7932L75.3811 19.752L75.6612 19.432L76.1106 18.9189L75.4694 18.6831L75.0699 18.5365C74.6507 18.3734 74.2018 18.2882 73.7472 18.2882V18.2882Z" fill="#FFCB05"/>
<path d="M79.1977 24.2742C79.1634 24.3042 79.1317 24.3424 79.1047 24.3816C79.1405 24.3491 79.1753 24.3207 79.2122 24.2907L79.1977 24.2742Z" fill="#7D7F68"/>
<path d="M82.2697 21.4474L84.0491 19.5615L83.4402 20.2036L83.4579 20.1225L82.9197 20.6867L81.1418 22.5669L82.8074 24.0554L83.1093 22.2015L83.9385 22.939L82.2697 21.4474Z" fill="#7D7F68"/>
<path d="M82.2697 21.4474L83.9385 22.939L84.5775 19.0031L84.0491 19.5615L82.2697 21.4474Z" fill="#7D7F68"/>
<path d="M60.1186 24.5271L60.1456 24.5385L60.1186 24.5271Z" fill="#7D7F68"/>
<path d="M69.9701 26.1643C70.1125 26.3072 69.981 26.2045 70.1405 26.3129L71.229 25.5506C71.0674 25.4371 70.9074 25.3152 70.7603 25.179C69.1809 23.7493 69.5914 20.5339 70.6159 18.7739C67.919 20.9354 68.0593 24.2629 69.9701 26.1643" fill="#C7A008"/>
<path d="M83.1093 27.9645C81.3117 29.4417 79.2626 30.4047 76.5553 31.0545C75.9636 31.1892 75.3838 31.2873 74.8164 31.3368C70.5193 31.7565 66.9142 29.7962 65.5463 26.6169C65.3758 26.2319 65.2444 25.8422 65.1452 25.4262C64.5124 22.7486 65.0527 20.3559 66.3843 18.4803C66.5162 18.2986 66.655 18.1247 66.8004 17.9476C66.7324 18.0054 66.6627 18.055 66.6061 18.1092C66.0944 18.5618 65.6413 19.0578 65.2563 19.5997C63.9232 21.4753 63.3829 23.8696 64.0214 26.5431C64.1191 26.9591 64.2484 27.3545 64.4152 27.7307C65.7837 30.9172 69.3898 32.8764 73.6833 32.4599C74.2553 32.4052 74.833 32.3113 75.4253 32.1694C78.1358 31.5196 80.1833 30.5606 81.9809 29.0835C82.4199 28.7248 82.8433 28.3335 83.2543 27.9057L83.2163 27.8695C83.1753 27.9046 83.1446 27.9351 83.1093 27.9645" fill="#C7A008"/>
<path d="M52.8258 19.8701L57.6269 13.1678L57.4321 12.9892L52.7999 19.4531L52.8258 19.8701Z" fill="#C7A008"/>
<path d="M84.5775 19.0031L83.9385 22.939L83.1093 22.2015L82.8074 24.0554L81.1418 22.5669L82.9197 20.6866L83.4579 20.1225L83.4402 20.2035L84.0491 19.5615L84.5775 19.0031Z" fill="#C7A008"/>
<path d="M78.6449 7.96323L80.3261 7.24686L77.253 3.32898L76.2462 4.72612L78.6449 7.96323Z" fill="#C7A008"/>
<path d="M32.0998 17.6694C24.3399 8.2786 10.3575 13.3263 5.33203 17.719L5.52842 18.056C6.68388 17.3974 7.9022 16.8018 9.1839 16.2676C14.1756 14.1495 18.9346 13.5286 22.7501 14.1918C24.0989 14.3456 25.5276 14.743 26.7709 15.5698C28.4921 16.5272 29.7967 17.8893 30.5593 19.6348C31.9127 22.7264 30.7204 26.8373 27.533 30.2788C31.5309 26.6344 34.2663 23.1475 32.0998 17.6694Z" fill="#C7A008"/>
<path d="M47.9312 28.6101C47.8948 28.4398 47.8585 28.2669 47.8029 28.1002C47.366 26.539 46.4271 25.2925 45.1964 24.4631C43.2044 23.1191 40.4239 22.843 37.6526 24.0053C36.1948 24.6314 34.9271 25.595 33.9249 26.7459C34.6954 26.0873 35.576 25.5387 36.5273 25.1299C39.2923 23.964 42.0729 24.2396 44.0716 25.5821C45.3023 26.4125 46.2334 27.6584 46.6796 29.2176C46.729 29.3848 46.7674 29.5603 46.8059 29.7363C46.9243 30.3299 46.9794 30.9301 46.9566 31.5448C46.8989 33.3419 46.2282 35.1515 45.1127 36.6967C44.9329 36.9414 44.7438 37.1695 44.548 37.3956C45.1828 36.8511 45.7497 36.2487 46.2339 35.5742C47.354 34.0387 48.0232 32.2256 48.0824 30.4176C48.1073 29.8143 48.0569 29.2042 47.9312 28.6101Z" fill="#C7A008"/>
<path d="M40.2903 26.318C40.2794 26.3351 41.4162 25.1991 41.4032 25.1991C39.9812 25.1454 39.3801 26.4775 39.3307 26.5823C39.6227 26.4419 39.9448 26.3506 40.2903 26.318" fill="#C7A008"/>
<path d="M42.9686 27.9464C43.0263 28.1379 43.0564 28.3283 43.0564 28.5368C43.0564 28.831 42.9904 29.1133 42.8704 29.3735C43.098 29.2553 44.7423 28.463 44.1048 26.7846C44.1391 26.8362 42.9275 27.9412 42.9686 27.9464Z" fill="#C7A008"/>
<path d="M36.5003 28.8806C36.5003 28.19 37.6906 26.5147 38.0615 25.9557C36.1818 27.1428 35.3724 28.7449 35.3724 30.0068C35.3724 32.1688 37.2848 33.9076 39.5713 33.9076C40.653 33.9076 42.634 33.3394 43.9297 31.2563C43.2507 31.7002 41.5248 32.7624 40.6192 32.7624C38.3332 32.7618 36.5003 31.0545 36.5003 28.8806Z" fill="#C7A008"/>
<path d="M52.5915 30.8594L52.6211 39.6102L54.0192 39.6897L53.7428 29.7141L52.5915 30.8594Z" fill="#C7A008"/>
<path d="M44.5667 14.199L44.5953 14.9763L51.221 13.0166L51.7119 21.3984L52.8175 19.8593L52.5816 11.4481L44.5667 14.199Z" fill="#C7A008"/>
<path d="M64.5955 17.2002L58.3719 11.526L57.6269 13.1678L63.1044 18.28L64.5955 17.2002Z" fill="#C7A008"/>
<path d="M63.6494 27.7745L56.3426 25.3746L55.278 26.4915L62.5573 29.3854C63.3829 30.9306 64.6339 32.2545 66.2092 33.2222C67.734 34.1486 69.4766 34.7035 71.322 34.8795V38.451L72.4504 39.0105L72.8073 33.6449L63.6494 27.7745V27.7745Z" fill="#C7A008"/>
<path d="M75.3827 26.765C77.1772 26.3351 78.2121 25.4051 79.1031 24.3816C78.4345 24.9266 75.0824 25.6523 74.5192 25.8417L73.4152 27.0097C73.9197 27.0541 74.7634 26.9188 75.3827 26.765Z" fill="#C7A008"/>
<path d="M72.1189 14.4219C68.81 14.8524 67.0856 17.6121 66.8004 17.9481C68.0224 16.9225 69.554 16.1613 71.2789 15.7556C75.3733 14.7719 78.9836 16.0121 81.2151 18.7527L82.596 17.5914C80.3859 14.8983 76.2124 13.4413 72.1189 14.4219" fill="#C7A008"/>
<path d="M83.2168 27.8695C83.6158 27.5361 84.325 27.1991 84.7022 26.8063L80.2716 22.8735C79.9323 23.2766 79.6247 23.9408 79.2107 24.2902L83.2168 27.8695V27.8695Z" fill="#C7A008"/>
<path d="M105.954 38.4087C101.306 34.6132 101.584 26.4744 103.865 23.8923L101.817 11.1364L97.3379 11.7108L97.1384 12.8344H100.528L102.323 24.4079C100.039 26.9983 98.9355 30.4687 99.6987 33.6459C100.289 36.1011 101.808 38.0882 103.993 39.2376C104.212 39.3573 104.44 39.4616 104.672 39.5602L104.701 39.73L106.033 39.939C106.033 39.9385 106.172 38.5192 105.954 38.4087V38.4087Z" fill="#C7A008"/>
<path d="M88.088 13.0135L87.8953 14.1376H93.0045L94.5096 22.3341L95.6432 21.1966L94.4514 12.5438L88.088 13.0135Z" fill="#C7A008"/>
<path d="M96.8345 28.9255L95.185 33.1588L95.5933 34.2602L97.9526 27.8133L96.8345 28.9255Z" fill="#C7A008"/>
<path d="M91.9358 26.2592L90.8 27.3859L89.5828 35.0317L90.7486 35.4741L91.9358 26.2592Z" fill="#C7A008"/>
<path d="M114.882 23.8169C115.551 24.2912 116.121 24.8915 116.551 25.6053C116.889 26.1529 117.145 26.766 117.309 27.439C117.866 29.7373 117.2 32.223 115.729 34.2173C115.581 34.4196 115.418 34.6152 115.262 34.8072C115.86 34.2967 123.116 28.9791 116.026 21.995C108.228 19.4412 105.276 24.4956 105 24.8161C105.824 24.1204 106.775 23.5449 107.805 23.1537C110.444 22.1607 113.041 22.5049 114.882 23.8169" fill="#C7A008"/>
<path d="M110.951 24.3206C110.973 24.3697 112.071 23.1841 112.093 23.1841C110.705 23.2409 110.039 23.9062 110.107 24.2133C110.024 24.3325 109.957 24.4507 109.904 24.5813C110.2 24.4347 110.747 24.3222 110.951 24.3206Z" fill="#C7A008"/>
<path d="M113.56 26.0533C113.61 26.2381 113.634 26.4316 113.63 26.6396C113.617 26.9059 113.548 27.1501 113.446 27.3777C113.657 27.2832 115.338 26.7645 114.696 24.9261C114.713 24.9782 113.542 26.0543 113.56 26.0533" fill="#C7A008"/>
<path d="M109.876 31.8906C111.446 31.9572 113.181 30.9993 114.426 29.3064C111.232 29.9572 107.874 24.6732 108.211 24.156C107.004 25.0252 105.936 26.7015 105.887 27.8731C105.804 30.0455 107.584 31.7998 109.876 31.8906Z" fill="#C7A008"/>
<path d="M127.38 45.6581L128.129 46.1557L137.266 18.9122L130.427 17.3422L130.342 18.938L135.858 20.154L127.38 45.6581Z" fill="#C7A008"/>
<path d="M116.528 14.422L116.588 15.9435L123.859 17.3943L126.658 30.5828L127.791 29.4484L125.125 16.1242L116.528 14.422Z" fill="#C7A008"/>
<path d="M122.124 29.4509L120.122 40.6982L121.275 41.0693L123.262 28.3433L122.124 29.4509Z" fill="#C7A008"/>
<path d="M27.7668 44.8252L24.3659 32.576L23.1211 33.4411L26.2731 45.1761L27.7668 44.8252Z" fill="#C7A008"/>
<path d="M26.8841 26.4058C26.0996 27.2326 24.3607 28.8393 23.37 29.4731L22.7683 27.5542L21.4508 23.3468L20.6133 20.4983L19.7961 21.5403L20.6304 24.3929L21.948 28.5973L22.547 30.5219C23.9035 29.6538 25.8767 28.0244 26.8841 26.4058" fill="#C7A008"/>
<path d="M75.0725 19.163C73.9992 18.7527 72.479 18.8761 71.6581 19.7685C71.4674 19.9754 71.0965 20.5034 70.9791 20.7393C71.7734 20.1117 73.1882 19.9759 74.1155 20.3083L75.0725 19.163V19.163Z" fill="#7D7F68"/>
<path d="M25.9027 22.9638C25.7822 22.3341 25.1613 21.834 24.8569 21.6952C24.3124 21.434 23.3705 21.3932 22.6826 21.5176C22.8063 21.9419 22.9481 22.4394 23.0084 22.6433C23.2874 22.682 23.7456 22.7646 23.9861 22.8735C24.288 23.018 24.8158 23.3586 24.9385 23.9924C25.1026 24.8384 25.0595 25.6291 24.7047 26.2711C25.6778 25.3225 26.15 24.2907 25.9027 22.9638" fill="#7D7F68"/>
<path d="M27.6068 22.9463C27.1397 20.4565 23.8625 19.0841 20.6133 20.8446L21.4508 23.6941L22.7683 27.9051L23.3694 29.8231C25.8071 28.2659 28.2573 26.395 27.6068 22.9463ZM24.3794 26.7748C24.0246 25.6244 23.2463 23.1403 23.2463 23.1403C23.2499 23.1517 23.093 22.6087 22.9071 21.9873C23.596 21.865 24.2579 21.9145 24.8023 22.1747C25.1068 22.3187 25.6419 22.6546 25.7588 23.2915C26.0279 24.7233 25.5422 25.7452 24.3794 26.7748V26.7748Z" fill="#3C5AA6"/>
<path d="M76.7735 18.9958C74.9572 17.3406 72.134 17.4691 70.4772 19.272C68.8105 21.0717 68.9414 23.8778 70.7603 25.5263C70.9084 25.6682 71.0684 25.7844 71.2295 25.8984L77.0883 19.3071C76.985 19.1997 76.8811 19.0929 76.7735 18.9958V18.9958ZM71.2414 23.6321C70.6684 22.587 70.7842 21.2601 71.641 20.33C72.465 19.4381 73.7274 19.1842 74.8039 19.5966L71.2414 23.6321V23.6321Z" fill="#3567B0"/>
<path d="M84.6019 18.2722L81.3574 21.3777L84.4398 24.1276L84.6019 18.2722Z" fill="#1E2D5F"/>
<path d="M114.688 24.9261C114.737 25.1217 114.762 25.3152 114.756 25.5212C114.702 26.7526 113.537 27.7033 112.147 27.6388C110.759 27.5913 109.669 26.5446 109.723 25.3163C109.77 24.1648 110.803 23.2533 112.078 23.195C111.836 23.1408 111.583 23.1124 111.319 23.1031C108.995 23.0035 107.096 24.6386 107.016 26.6742C106.927 28.8512 108.683 30.6261 110.97 30.7247C113.297 30.8171 115.196 29.1763 115.288 27.0097C115.315 26.2587 115.092 25.5387 114.688 24.9261Z" fill="#3466AF"/>
<path d="M44.1885 27.4122C44.1885 28.6489 43.0564 29.6398 41.6697 29.6398C40.2794 29.6398 39.1515 28.6483 39.1515 27.4122C39.1515 26.2597 40.1438 25.3096 41.4157 25.1991C41.172 25.1552 40.9185 25.1299 40.6566 25.1299C38.3332 25.1299 36.5003 26.8419 36.5003 28.8806C36.5003 31.0561 38.3338 32.7623 40.6192 32.7623C42.9447 32.7623 44.7761 31.055 44.7761 28.8806C44.7761 28.1276 44.5256 27.4179 44.0949 26.8337C44.1531 27.0097 44.1885 27.2048 44.1885 27.4122" fill="url(#paint7_linear)"/>
<path d="M129.142 14.9221L128.11 19.1466L127.157 14.469L114.398 11.6788L114.487 18.727L116.41 19.1554L116.271 20.4266C116.246 20.4168 116.23 20.4018 116.217 20.3909C113.833 19.1414 110.878 19.0134 108.097 20.057C107.164 20.4116 106.298 20.8777 105.512 21.4444L103.587 9.37331H95.1018L94.868 10.7612H85.9366L84.9168 16.9665L84.1759 16.0576C82.0115 13.4161 78.874 11.9611 75.3983 11.8889L82.9815 7.83991L77.6936 0.000549316L68.1398 10.9366L69.7888 12.934C68.2951 13.5405 66.99 14.3766 65.9089 15.3866L57.7173 8.16662L54.853 13.62L54.9632 8.37926L42.156 12.4437L42.4843 19.2792L44.6633 18.7177L44.9854 22.1819C42.4958 21.0712 39.5032 21.0986 36.7278 22.2634C35.9054 22.6196 35.1386 23.0572 34.432 23.5661C34.912 21.4557 34.7983 19.3752 33.9888 17.5198C33.0329 15.3273 31.3506 13.5152 29.288 12.372C27.8421 11.4151 26.1188 10.819 24.3155 10.6161C19.8838 9.84659 14.5622 10.6368 9.32469 12.8535C7.39928 13.6695 5.60323 14.5954 3.9833 15.6204L1.93579 16.9102L3.1723 18.9845L7.00962 25.4273C7.00962 25.4273 8.18378 27.4014 8.19158 27.4004L10.2666 26.3872L10.556 26.2551L20.0911 47.396L21.0107 49.4279L23.1398 48.7467L28.2988 47.1049L30.5599 46.3911L29.9634 44.1047L27.2234 33.6558C28.0115 33.0762 28.7472 32.4615 29.4262 31.8179C29.273 33.0664 29.3535 34.3304 29.6995 35.5401C30.4159 38.0733 32.0857 40.0743 34.4029 41.1829C36.9055 42.3777 39.9589 42.3808 42.7836 41.1906C44.2004 40.5935 45.4603 39.7223 46.5279 38.6854L46.9171 42.8469L55.9519 41.5251L55.9378 33.4772L74.8164 42.7462V33.7714C75.5739 33.7084 76.3469 33.5897 77.1242 33.4003C79.2034 32.9012 80.9828 32.2168 82.5638 31.2759L81.7709 36.096L91.9498 37.6872L92.5083 34.0486L95.1668 38.9274L96.7919 35.8168L97.3857 40.9243L108.926 42.9454L108.314 39.0885C109.894 39.266 111.559 39.0554 113.168 38.4526C113.549 38.3127 113.925 38.1424 114.285 37.9597L113.825 42.0634L121.506 43.14L121.563 46.2693L129.572 48.7668L140 17.544L129.142 14.9221V14.9221ZM84.0491 19.5621L84.5785 19.0031L83.939 22.9396L82.2707 21.4469L84.0491 19.5621ZM77.2858 3.48179L80.0819 7.25515L72.0877 11.1921L71.5355 10.3586L77.2858 3.48179V3.48179ZM24.3503 32.5792L27.5398 44.7364L22.3776 46.3746L11.7847 22.8735C11.2085 23.1744 10.1445 23.6792 9.16727 24.155L5.33151 17.718C6.85688 16.7502 8.5298 15.8924 10.3092 15.1456C15.303 13.0357 20.0677 12.406 23.8786 13.0749C25.2268 13.2256 26.654 13.6205 27.904 14.4447C29.619 15.4042 30.9308 16.7698 31.6873 18.5092C33.5322 22.7445 30.4502 28.8393 24.3503 32.5792V32.5792ZM48.0834 30.4156C48.0242 32.2256 47.355 34.0393 46.2349 35.5737C45.1693 37.0575 43.6808 38.2823 41.9295 39.0312C37.451 40.9161 32.9726 39.0312 31.7761 34.8072C30.617 30.7232 33.3139 25.8613 37.6531 24.0043C40.4244 22.842 43.205 23.1176 45.1969 24.4621C46.4271 25.291 47.3654 26.5374 47.8034 28.0992C47.8585 28.2649 47.8948 28.4388 47.9317 28.6091C48.0569 29.2042 48.1073 29.8143 48.0834 30.4156V30.4156ZM72.4504 39.0105L53.7184 29.7033L53.7516 39.4549L48.9059 40.1114L48.5682 36.0919C50.0644 33.5433 50.6115 30.54 49.8306 27.7859C49.402 26.2722 48.6102 24.9581 47.5343 23.9052L46.8391 15.7097L44.6633 16.2702L44.5672 14.198L52.3489 11.8961L52.8258 19.8692L58.5584 11.8677L64.1627 17.1698L56.3254 25.372L63.6883 28.2654C64.5108 29.8138 65.7655 31.1294 67.3397 32.0986C68.8614 33.0318 70.605 33.5835 72.4493 33.7647L72.4504 39.0105ZM62.7241 25.5264L60.1186 24.5277L62.5474 22.1824C62.4435 23.259 62.497 24.3847 62.7241 25.5264ZM83.1093 27.9645C81.3117 29.4417 79.2626 30.4047 76.5553 31.0545C75.9635 31.1892 75.3837 31.2873 74.8164 31.3368C70.5193 31.7565 66.9142 29.7962 65.5462 26.6169C65.3758 26.2319 65.2444 25.8422 65.1451 25.4262C64.5123 22.7486 65.0527 20.3553 66.3842 18.4803C66.7677 17.9332 67.2228 17.4346 67.734 16.9856C68.9882 15.8739 70.5894 15.0656 72.4099 14.631C76.5033 13.6504 80.1084 14.8917 82.3185 17.5858L74.5182 25.834C75.0471 25.9331 75.8882 25.7953 76.509 25.6476C78.3669 25.1976 79.4065 24.218 80.3225 23.1507L83.4397 25.9367L84.3842 26.7841C83.9748 27.2048 83.5447 27.6017 83.1093 27.9645V27.9645ZM99.6582 38.9718L97.9614 27.8055L95.5616 33.9655L91.9685 26.2665H91.928L90.508 35.1825L84.5193 34.1471L85.3615 29.1717C85.5875 28.9606 85.8098 28.749 86.0286 28.5255L87.9696 26.54L86.0831 24.8616L88.0875 13.013H94.1298L95.6421 21.2152L97.3369 11.7098H101.659L103.452 23.2905C101.17 25.8732 100.061 29.3451 100.824 32.5213C101.414 34.9838 102.937 36.9667 105.121 38.1249C105.34 38.2348 105.568 38.3437 105.803 38.4376L106.031 39.939L99.6582 38.9718V38.9718ZM114.582 35.3337C113.922 35.8008 113.195 36.1977 112.413 36.4841C110.871 37.0679 109.337 37.1891 107.97 36.9192C107.017 36.7324 106.148 36.3634 105.392 35.8292C104.19 34.9652 103.305 33.6893 102.915 32.0873C102.46 30.1627 102.879 28.1075 103.921 26.3072C104.441 25.4273 105.107 24.6004 105.896 23.8877C106.775 23.1042 107.795 22.4627 108.93 22.0291C111.571 21.0506 114.175 21.3881 116.009 22.6975C116.683 23.1723 117.243 23.7767 117.684 24.4791C118.018 25.034 118.278 25.6456 118.435 26.3134C118.997 28.6246 118.328 31.1 116.861 33.0942C116.232 33.9443 115.466 34.7082 114.582 35.3337V35.3337ZM128.067 45.8584L123.638 44.548L123.252 28.3284L121.025 40.8407L116.194 40.0748L116.54 36.4723C119.694 33.824 121.367 29.6466 120.45 25.8608C120.048 24.1844 119.18 22.7249 117.957 21.6152L118.365 17.3665L116.538 16.8834L116.66 14.615L124.984 16.2769L127.782 29.4618L130.653 17.6411L136.985 19.031L128.067 45.8584V45.8584Z" fill="url(#paint8_linear)"/>
<path d="M131.706 47.3956V46.1711H131.245V46.0073H132.353V46.1711H131.891V47.3956H131.706Z" fill="black"/>
<path d="M132.538 47.3956V46.0073H132.816L133.147 46.9903C133.178 47.0818 133.2 47.1503 133.214 47.1958C133.23 47.1452 133.255 47.0711 133.288 46.9732L133.623 46.0073H133.872V47.3956H133.693V46.2336L133.287 47.3956H133.121L132.716 46.2137V47.3956H132.538Z" fill="black"/>
</g>
<path d="M164.56 25.5565C163.951 25.1375 163.084 25.2363 162.604 25.8234C162.092 26.449 162.251 27.3342 162.894 27.7768L163.291 27.2L162.894 27.7768C163.845 28.4304 164.746 29.5755 165.063 30.0596C165.483 30.7013 166.341 30.8722 166.984 30.5182C167.659 30.1471 167.928 29.2889 167.482 28.6069C167.072 27.9798 165.937 26.5028 164.56 25.5565Z" fill="#FD7114" stroke="#1C4175" stroke-width="1.4" stroke-linecap="round"/>
<path d="M164.742 24.1922C164.133 23.7732 163.266 23.872 162.786 24.4591C162.274 25.0847 162.433 25.9699 163.077 26.4125L163.473 25.8357L163.077 26.4125C164.027 27.0661 164.929 28.2112 165.246 28.6953C165.666 29.337 166.523 29.5079 167.166 29.1539C167.841 28.7828 168.11 27.9245 167.664 27.2426C167.254 26.6155 166.119 25.1385 164.742 24.1922Z" fill="#FD7114" stroke="#2D70B7" stroke-width="1.4" stroke-linecap="round"/>
<mask id="path-67-outside-1" maskUnits="userSpaceOnUse" x="134" y="19" width="51" height="32" fill="black">
<rect fill="white" x="134" y="19" width="51" height="32"/>
<path d="M136.703 48.8283C136.129 48.8283 135.645 48.5741 135.251 48.0657C135.084 47.7681 135 47.3714 135 46.8754C135 46.2802 135.185 45.3627 135.556 44.1228C135.914 42.8704 136.571 41.4383 137.527 39.8264C138.471 38.2021 139.463 36.9994 140.502 36.2182C141.494 35.5487 142.259 35.2139 142.796 35.2139C143.37 35.2139 143.657 35.4619 143.657 35.9578C143.657 36.1066 143.597 36.305 143.477 36.553C143.358 36.7886 143.113 36.9064 142.743 36.9064C142.468 36.9064 142.061 37.1978 141.524 37.7805C140.986 38.3509 140.448 39.0515 139.911 39.8822C139.361 40.7006 138.919 41.5003 138.584 42.2815C138.095 43.4718 137.766 44.4761 137.599 45.2945C137.527 45.6293 137.491 45.902 137.491 46.1128C137.491 46.3856 137.563 46.522 137.706 46.522C138.16 46.522 138.77 46.0012 139.534 44.9597C140.837 43.1742 142.51 40.2356 144.553 36.1438C145.843 33.54 147.044 30.9919 148.155 28.4997C149.804 24.6931 150.891 22.3373 151.417 21.4321C151.728 20.8741 152.008 20.496 152.259 20.2976C152.522 20.0992 152.821 20 153.155 20C153.538 20 153.753 20.093 153.801 20.279C153.813 20.3286 153.819 20.3906 153.819 20.465C153.819 20.6634 153.753 20.9237 153.621 21.2461C153.084 22.61 152.02 25.1705 150.431 28.9275C149.356 31.4197 148.555 33.3292 148.03 34.6559C147.504 35.9702 147.163 36.9746 147.008 37.6689C146.865 38.3509 146.793 39.0391 146.793 39.7334C146.841 40.6634 147.02 41.2709 147.331 41.5561C147.582 41.7669 147.88 41.8723 148.227 41.8723L148.531 41.8537C149.571 41.6677 150.521 41.2151 151.381 40.496C152.241 39.7768 153.054 38.9833 153.819 38.1153C154.273 37.6317 154.715 37.173 155.145 36.739C155.479 36.4414 155.748 36.2926 155.951 36.2926C155.999 36.2926 156.089 36.3174 156.22 36.367C156.352 36.4166 156.447 36.6398 156.507 37.0366C156.507 37.3962 156.131 38.0471 155.378 38.9895C154.625 39.9194 153.771 40.8493 152.815 41.7793C151.871 42.7092 151.064 43.3912 150.395 43.8252C149.929 44.098 149.326 44.3521 148.585 44.5877C148.095 44.7489 147.611 44.8295 147.134 44.8295C146.906 44.8295 146.56 44.7923 146.094 44.7179C145.628 44.6311 145.21 44.1909 144.839 43.3974L144.624 42.8394C144.481 42.4179 147.229 44.1228 147.134 44.1228C147.014 44.1228 143.937 42.4737 143.639 43.0068C142.504 44.8171 141.153 46.3484 139.588 47.6007C138.752 48.2083 137.945 48.5989 137.169 48.7725C137.013 48.8097 136.858 48.8283 136.703 48.8283Z"/>
<path d="M156.489 45.7037H156.274C155.557 45.7037 154.918 45.5363 154.356 45.2015C153.783 44.8543 153.412 44.1909 153.245 43.2114C153.197 42.9138 153.173 42.61 153.173 42.3001C153.173 41.3825 153.376 40.403 153.783 39.3614C154.607 37.4024 155.677 35.995 156.991 35.1395C157.708 34.6683 158.377 34.4327 158.998 34.4327C159.536 34.4327 160.038 34.6001 160.504 34.9349C161.101 35.3689 161.4 35.9454 161.4 36.6646C161.4 37.8301 160.635 39.3552 159.106 41.2399C158.389 42.1575 158.03 42.6968 158.03 42.858C158.03 42.9572 158.096 43.0068 158.228 43.0068C158.729 43.0068 159.703 42.6596 161.149 41.9653C162.595 41.2709 164.118 40.4526 165.719 39.5102C167.332 38.5555 168.706 37.6441 169.841 36.7762C170.14 36.5654 170.379 36.46 170.558 36.46C170.63 36.46 170.696 36.4786 170.755 36.5158C170.887 36.615 170.952 36.7824 170.952 37.018C170.952 37.0924 170.935 37.2412 170.899 37.4644C170.863 37.6875 170.702 37.9913 170.415 38.3757C169.578 39.2684 168.306 40.279 166.597 41.4073C164.901 42.5232 163.12 43.5028 161.256 44.3459C159.404 45.1767 157.815 45.6293 156.489 45.7037ZM156.202 41.3143C156.417 41.3143 156.782 40.9733 157.296 40.2914C157.773 39.659 158.162 39.0081 158.46 38.3385C158.664 37.8549 158.765 37.4953 158.765 37.2598C158.765 37.0242 158.64 36.9064 158.389 36.9064C158.186 36.9064 157.905 37.0552 157.546 37.3528C157.188 37.6503 156.859 38.1463 156.561 38.8407C156.178 39.8326 155.987 40.527 155.987 40.9237C155.987 41.1841 156.059 41.3143 156.202 41.3143Z"/>
<path d="M163.461 50C163.174 50 162.911 49.9628 162.672 49.8884C162.421 49.8264 162.266 49.7458 162.206 49.6466V49.5908C162.206 49.4296 162.29 49.1259 162.457 48.6795C162.624 48.2455 162.851 47.7557 163.138 47.2102C163.628 46.3174 163.915 45.6727 163.999 45.2759C163.652 44.7923 163.347 44.3025 163.084 43.8066C162.822 43.2982 162.69 42.7774 162.69 42.2443C162.69 41.7483 162.851 41.2275 163.174 40.682C163.234 40.5952 163.312 40.5518 163.407 40.5518C163.598 40.5518 163.843 40.6696 164.142 40.9051C164.429 41.1283 164.709 41.3639 164.984 41.6119C165.391 41.9715 165.641 42.1637 165.737 42.1885C165.856 42.1637 166.287 41.5747 167.027 40.4216C168.115 38.6857 168.987 37.452 169.644 36.7204C170.003 36.3112 170.331 36.1066 170.63 36.1066C170.917 36.1066 171.227 36.274 171.562 36.6088C171.777 36.7576 171.884 36.9498 171.884 37.1854C171.884 37.4334 171.741 37.8177 171.454 38.3385C171.168 38.8469 170.684 39.6404 170.003 40.7192C169.381 41.7111 168.861 42.5914 168.443 43.3602C168.013 44.129 167.798 44.5815 167.798 44.7179C167.798 44.8419 167.953 44.9535 168.264 45.0527C168.563 45.1395 168.939 45.1829 169.393 45.1829C170.206 45.1829 171.472 44.7241 173.193 43.8066C174.913 42.8766 176.592 41.8537 178.229 40.7378C179.866 39.6218 181.037 38.7105 181.742 38.0037C182.459 37.2846 183.008 36.925 183.391 36.925C183.797 36.925 184 37.2784 184 37.9851C184 38.4935 183.217 39.4482 181.652 40.8493C180.087 42.2505 178.289 43.5958 176.257 44.8853C174.716 45.8648 173.336 46.6088 172.117 47.1172C170.911 47.6379 169.799 47.8983 168.784 47.8983C167.828 47.8983 166.92 47.6565 166.06 47.173L165.307 48.5865C165.02 49.1073 164.745 49.473 164.482 49.6838C164.22 49.8946 163.879 50 163.461 50Z"/>
</mask>
<path d="M136.703 48.8283C136.129 48.8283 135.645 48.5741 135.251 48.0657C135.084 47.7681 135 47.3714 135 46.8754C135 46.2802 135.185 45.3627 135.556 44.1228C135.914 42.8704 136.571 41.4383 137.527 39.8264C138.471 38.2021 139.463 36.9994 140.502 36.2182C141.494 35.5487 142.259 35.2139 142.796 35.2139C143.37 35.2139 143.657 35.4619 143.657 35.9578C143.657 36.1066 143.597 36.305 143.477 36.553C143.358 36.7886 143.113 36.9064 142.743 36.9064C142.468 36.9064 142.061 37.1978 141.524 37.7805C140.986 38.3509 140.448 39.0515 139.911 39.8822C139.361 40.7006 138.919 41.5003 138.584 42.2815C138.095 43.4718 137.766 44.4761 137.599 45.2945C137.527 45.6293 137.491 45.902 137.491 46.1128C137.491 46.3856 137.563 46.522 137.706 46.522C138.16 46.522 138.77 46.0012 139.534 44.9597C140.837 43.1742 142.51 40.2356 144.553 36.1438C145.843 33.54 147.044 30.9919 148.155 28.4997C149.804 24.6931 150.891 22.3373 151.417 21.4321C151.728 20.8741 152.008 20.496 152.259 20.2976C152.522 20.0992 152.821 20 153.155 20C153.538 20 153.753 20.093 153.801 20.279C153.813 20.3286 153.819 20.3906 153.819 20.465C153.819 20.6634 153.753 20.9237 153.621 21.2461C153.084 22.61 152.02 25.1705 150.431 28.9275C149.356 31.4197 148.555 33.3292 148.03 34.6559C147.504 35.9702 147.163 36.9746 147.008 37.6689C146.865 38.3509 146.793 39.0391 146.793 39.7334C146.841 40.6634 147.02 41.2709 147.331 41.5561C147.582 41.7669 147.88 41.8723 148.227 41.8723L148.531 41.8537C149.571 41.6677 150.521 41.2151 151.381 40.496C152.241 39.7768 153.054 38.9833 153.819 38.1153C154.273 37.6317 154.715 37.173 155.145 36.739C155.479 36.4414 155.748 36.2926 155.951 36.2926C155.999 36.2926 156.089 36.3174 156.22 36.367C156.352 36.4166 156.447 36.6398 156.507 37.0366C156.507 37.3962 156.131 38.0471 155.378 38.9895C154.625 39.9194 153.771 40.8493 152.815 41.7793C151.871 42.7092 151.064 43.3912 150.395 43.8252C149.929 44.098 149.326 44.3521 148.585 44.5877C148.095 44.7489 147.611 44.8295 147.134 44.8295C146.906 44.8295 146.56 44.7923 146.094 44.7179C145.628 44.6311 145.21 44.1909 144.839 43.3974L144.624 42.8394C144.481 42.4179 147.229 44.1228 147.134 44.1228C147.014 44.1228 143.937 42.4737 143.639 43.0068C142.504 44.8171 141.153 46.3484 139.588 47.6007C138.752 48.2083 137.945 48.5989 137.169 48.7725C137.013 48.8097 136.858 48.8283 136.703 48.8283Z" fill="#183563"/>
<path d="M156.489 45.7037H156.274C155.557 45.7037 154.918 45.5363 154.356 45.2015C153.783 44.8543 153.412 44.1909 153.245 43.2114C153.197 42.9138 153.173 42.61 153.173 42.3001C153.173 41.3825 153.376 40.403 153.783 39.3614C154.607 37.4024 155.677 35.995 156.991 35.1395C157.708 34.6683 158.377 34.4327 158.998 34.4327C159.536 34.4327 160.038 34.6001 160.504 34.9349C161.101 35.3689 161.4 35.9454 161.4 36.6646C161.4 37.8301 160.635 39.3552 159.106 41.2399C158.389 42.1575 158.03 42.6968 158.03 42.858C158.03 42.9572 158.096 43.0068 158.228 43.0068C158.729 43.0068 159.703 42.6596 161.149 41.9653C162.595 41.2709 164.118 40.4526 165.719 39.5102C167.332 38.5555 168.706 37.6441 169.841 36.7762C170.14 36.5654 170.379 36.46 170.558 36.46C170.63 36.46 170.696 36.4786 170.755 36.5158C170.887 36.615 170.952 36.7824 170.952 37.018C170.952 37.0924 170.935 37.2412 170.899 37.4644C170.863 37.6875 170.702 37.9913 170.415 38.3757C169.578 39.2684 168.306 40.279 166.597 41.4073C164.901 42.5232 163.12 43.5028 161.256 44.3459C159.404 45.1767 157.815 45.6293 156.489 45.7037ZM156.202 41.3143C156.417 41.3143 156.782 40.9733 157.296 40.2914C157.773 39.659 158.162 39.0081 158.46 38.3385C158.664 37.8549 158.765 37.4953 158.765 37.2598C158.765 37.0242 158.64 36.9064 158.389 36.9064C158.186 36.9064 157.905 37.0552 157.546 37.3528C157.188 37.6503 156.859 38.1463 156.561 38.8407C156.178 39.8326 155.987 40.527 155.987 40.9237C155.987 41.1841 156.059 41.3143 156.202 41.3143Z" fill="#183563"/>
<path d="M163.461 50C163.174 50 162.911 49.9628 162.672 49.8884C162.421 49.8264 162.266 49.7458 162.206 49.6466V49.5908C162.206 49.4296 162.29 49.1259 162.457 48.6795C162.624 48.2455 162.851 47.7557 163.138 47.2102C163.628 46.3174 163.915 45.6727 163.999 45.2759C163.652 44.7923 163.347 44.3025 163.084 43.8066C162.822 43.2982 162.69 42.7774 162.69 42.2443C162.69 41.7483 162.851 41.2275 163.174 40.682C163.234 40.5952 163.312 40.5518 163.407 40.5518C163.598 40.5518 163.843 40.6696 164.142 40.9051C164.429 41.1283 164.709 41.3639 164.984 41.6119C165.391 41.9715 165.641 42.1637 165.737 42.1885C165.856 42.1637 166.287 41.5747 167.027 40.4216C168.115 38.6857 168.987 37.452 169.644 36.7204C170.003 36.3112 170.331 36.1066 170.63 36.1066C170.917 36.1066 171.227 36.274 171.562 36.6088C171.777 36.7576 171.884 36.9498 171.884 37.1854C171.884 37.4334 171.741 37.8177 171.454 38.3385C171.168 38.8469 170.684 39.6404 170.003 40.7192C169.381 41.7111 168.861 42.5914 168.443 43.3602C168.013 44.129 167.798 44.5815 167.798 44.7179C167.798 44.8419 167.953 44.9535 168.264 45.0527C168.563 45.1395 168.939 45.1829 169.393 45.1829C170.206 45.1829 171.472 44.7241 173.193 43.8066C174.913 42.8766 176.592 41.8537 178.229 40.7378C179.866 39.6218 181.037 38.7105 181.742 38.0037C182.459 37.2846 183.008 36.925 183.391 36.925C183.797 36.925 184 37.2784 184 37.9851C184 38.4935 183.217 39.4482 181.652 40.8493C180.087 42.2505 178.289 43.5958 176.257 44.8853C174.716 45.8648 173.336 46.6088 172.117 47.1172C170.911 47.6379 169.799 47.8983 168.784 47.8983C167.828 47.8983 166.92 47.6565 166.06 47.173L165.307 48.5865C165.02 49.1073 164.745 49.473 164.482 49.6838C164.22 49.8946 163.879 50 163.461 50Z" fill="#183563"/>
<path d="M136.703 48.8283C136.129 48.8283 135.645 48.5741 135.251 48.0657C135.084 47.7681 135 47.3714 135 46.8754C135 46.2802 135.185 45.3627 135.556 44.1228C135.914 42.8704 136.571 41.4383 137.527 39.8264C138.471 38.2021 139.463 36.9994 140.502 36.2182C141.494 35.5487 142.259 35.2139 142.796 35.2139C143.37 35.2139 143.657 35.4619 143.657 35.9578C143.657 36.1066 143.597 36.305 143.477 36.553C143.358 36.7886 143.113 36.9064 142.743 36.9064C142.468 36.9064 142.061 37.1978 141.524 37.7805C140.986 38.3509 140.448 39.0515 139.911 39.8822C139.361 40.7006 138.919 41.5003 138.584 42.2815C138.095 43.4718 137.766 44.4761 137.599 45.2945C137.527 45.6293 137.491 45.902 137.491 46.1128C137.491 46.3856 137.563 46.522 137.706 46.522C138.16 46.522 138.77 46.0012 139.534 44.9597C140.837 43.1742 142.51 40.2356 144.553 36.1438C145.843 33.54 147.044 30.9919 148.155 28.4997C149.804 24.6931 150.891 22.3373 151.417 21.4321C151.728 20.8741 152.008 20.496 152.259 20.2976C152.522 20.0992 152.821 20 153.155 20C153.538 20 153.753 20.093 153.801 20.279C153.813 20.3286 153.819 20.3906 153.819 20.465C153.819 20.6634 153.753 20.9237 153.621 21.2461C153.084 22.61 152.02 25.1705 150.431 28.9275C149.356 31.4197 148.555 33.3292 148.03 34.6559C147.504 35.9702 147.163 36.9746 147.008 37.6689C146.865 38.3509 146.793 39.0391 146.793 39.7334C146.841 40.6634 147.02 41.2709 147.331 41.5561C147.582 41.7669 147.88 41.8723 148.227 41.8723L148.531 41.8537C149.571 41.6677 150.521 41.2151 151.381 40.496C152.241 39.7768 153.054 38.9833 153.819 38.1153C154.273 37.6317 154.715 37.173 155.145 36.739C155.479 36.4414 155.748 36.2926 155.951 36.2926C155.999 36.2926 156.089 36.3174 156.22 36.367C156.352 36.4166 156.447 36.6398 156.507 37.0366C156.507 37.3962 156.131 38.0471 155.378 38.9895C154.625 39.9194 153.771 40.8493 152.815 41.7793C151.871 42.7092 151.064 43.3912 150.395 43.8252C149.929 44.098 149.326 44.3521 148.585 44.5877C148.095 44.7489 147.611 44.8295 147.134 44.8295C146.906 44.8295 146.56 44.7923 146.094 44.7179C145.628 44.6311 145.21 44.1909 144.839 43.3974L144.624 42.8394C144.481 42.4179 147.229 44.1228 147.134 44.1228C147.014 44.1228 143.937 42.4737 143.639 43.0068C142.504 44.8171 141.153 46.3484 139.588 47.6007C138.752 48.2083 137.945 48.5989 137.169 48.7725C137.013 48.8097 136.858 48.8283 136.703 48.8283Z" stroke="#183563" stroke-width="2" mask="url(#path-67-outside-1)"/>
<path d="M156.489 45.7037H156.274C155.557 45.7037 154.918 45.5363 154.356 45.2015C153.783 44.8543 153.412 44.1909 153.245 43.2114C153.197 42.9138 153.173 42.61 153.173 42.3001C153.173 41.3825 153.376 40.403 153.783 39.3614C154.607 37.4024 155.677 35.995 156.991 35.1395C157.708 34.6683 158.377 34.4327 158.998 34.4327C159.536 34.4327 160.038 34.6001 160.504 34.9349C161.101 35.3689 161.4 35.9454 161.4 36.6646C161.4 37.8301 160.635 39.3552 159.106 41.2399C158.389 42.1575 158.03 42.6968 158.03 42.858C158.03 42.9572 158.096 43.0068 158.228 43.0068C158.729 43.0068 159.703 42.6596 161.149 41.9653C162.595 41.2709 164.118 40.4526 165.719 39.5102C167.332 38.5555 168.706 37.6441 169.841 36.7762C170.14 36.5654 170.379 36.46 170.558 36.46C170.63 36.46 170.696 36.4786 170.755 36.5158C170.887 36.615 170.952 36.7824 170.952 37.018C170.952 37.0924 170.935 37.2412 170.899 37.4644C170.863 37.6875 170.702 37.9913 170.415 38.3757C169.578 39.2684 168.306 40.279 166.597 41.4073C164.901 42.5232 163.12 43.5028 161.256 44.3459C159.404 45.1767 157.815 45.6293 156.489 45.7037ZM156.202 41.3143C156.417 41.3143 156.782 40.9733 157.296 40.2914C157.773 39.659 158.162 39.0081 158.46 38.3385C158.664 37.8549 158.765 37.4953 158.765 37.2598C158.765 37.0242 158.64 36.9064 158.389 36.9064C158.186 36.9064 157.905 37.0552 157.546 37.3528C157.188 37.6503 156.859 38.1463 156.561 38.8407C156.178 39.8326 155.987 40.527 155.987 40.9237C155.987 41.1841 156.059 41.3143 156.202 41.3143Z" stroke="#183563" stroke-width="2" mask="url(#path-67-outside-1)"/>
<path d="M163.461 50C163.174 50 162.911 49.9628 162.672 49.8884C162.421 49.8264 162.266 49.7458 162.206 49.6466V49.5908C162.206 49.4296 162.29 49.1259 162.457 48.6795C162.624 48.2455 162.851 47.7557 163.138 47.2102C163.628 46.3174 163.915 45.6727 163.999 45.2759C163.652 44.7923 163.347 44.3025 163.084 43.8066C162.822 43.2982 162.69 42.7774 162.69 42.2443C162.69 41.7483 162.851 41.2275 163.174 40.682C163.234 40.5952 163.312 40.5518 163.407 40.5518C163.598 40.5518 163.843 40.6696 164.142 40.9051C164.429 41.1283 164.709 41.3639 164.984 41.6119C165.391 41.9715 165.641 42.1637 165.737 42.1885C165.856 42.1637 166.287 41.5747 167.027 40.4216C168.115 38.6857 168.987 37.452 169.644 36.7204C170.003 36.3112 170.331 36.1066 170.63 36.1066C170.917 36.1066 171.227 36.274 171.562 36.6088C171.777 36.7576 171.884 36.9498 171.884 37.1854C171.884 37.4334 171.741 37.8177 171.454 38.3385C171.168 38.8469 170.684 39.6404 170.003 40.7192C169.381 41.7111 168.861 42.5914 168.443 43.3602C168.013 44.129 167.798 44.5815 167.798 44.7179C167.798 44.8419 167.953 44.9535 168.264 45.0527C168.563 45.1395 168.939 45.1829 169.393 45.1829C170.206 45.1829 171.472 44.7241 173.193 43.8066C174.913 42.8766 176.592 41.8537 178.229 40.7378C179.866 39.6218 181.037 38.7105 181.742 38.0037C182.459 37.2846 183.008 36.925 183.391 36.925C183.797 36.925 184 37.2784 184 37.9851C184 38.4935 183.217 39.4482 181.652 40.8493C180.087 42.2505 178.289 43.5958 176.257 44.8853C174.716 45.8648 173.336 46.6088 172.117 47.1172C170.911 47.6379 169.799 47.8983 168.784 47.8983C167.828 47.8983 166.92 47.6565 166.06 47.173L165.307 48.5865C165.02 49.1073 164.745 49.473 164.482 49.6838C164.22 49.8946 163.879 50 163.461 50Z" stroke="#183563" stroke-width="2" mask="url(#path-67-outside-1)"/>
<mask id="path-68-outside-2" maskUnits="userSpaceOnUse" x="135.598" y="17.508" width="52" height="32" fill="black">
<rect fill="white" x="135.598" y="17.508" width="52" height="32"/>
<path d="M139.268 46.7541C138.706 46.7541 138.231 46.5139 137.844 46.0334C137.68 45.7521 137.598 45.3771 137.598 44.9084C137.598 44.3459 137.78 43.4787 138.143 42.3068C138.495 41.1232 139.139 39.7697 140.077 38.2463C141.003 36.7111 141.975 35.5744 142.995 34.8361C143.967 34.2033 144.717 33.8869 145.245 33.8869C145.807 33.8869 146.088 34.1213 146.088 34.59C146.088 34.7307 146.03 34.9182 145.913 35.1525C145.796 35.3752 145.555 35.4865 145.192 35.4865C144.922 35.4865 144.524 35.7619 143.997 36.3127C143.469 36.8517 142.942 37.5139 142.415 38.299C141.876 39.0724 141.442 39.8283 141.114 40.5666C140.633 41.6916 140.311 42.6408 140.147 43.4142C140.077 43.7307 140.042 43.9885 140.042 44.1877C140.042 44.4455 140.112 44.5744 140.253 44.5744C140.698 44.5744 141.296 44.0822 142.046 43.0978C143.323 41.4103 144.963 38.633 146.967 34.7658C148.233 32.3049 149.411 29.8967 150.501 27.5412C152.118 23.9435 153.184 21.717 153.7 20.8615C154.004 20.3342 154.28 19.9767 154.526 19.7892C154.784 19.6017 155.077 19.508 155.405 19.508C155.78 19.508 155.991 19.5959 156.038 19.7717C156.049 19.8185 156.055 19.8771 156.055 19.9474C156.055 20.1349 155.991 20.381 155.862 20.6857C155.335 21.9748 154.292 24.3947 152.733 27.9455C151.678 30.301 150.893 32.1057 150.378 33.3596C149.862 34.6017 149.528 35.551 149.376 36.2072C149.235 36.8517 149.165 37.5021 149.165 38.1584C149.212 39.0373 149.387 39.6115 149.692 39.881C149.938 40.0803 150.231 40.1799 150.571 40.1799L150.87 40.1623C151.889 39.9865 152.821 39.5588 153.665 38.8791C154.508 38.1994 155.305 37.4494 156.055 36.6291C156.501 36.1721 156.934 35.7385 157.356 35.3283C157.684 35.0471 157.948 34.9064 158.147 34.9064C158.194 34.9064 158.282 34.9299 158.411 34.9767C158.54 35.0236 158.633 35.2346 158.692 35.6096C158.692 35.9494 158.323 36.5646 157.585 37.4553C156.846 38.3342 156.008 39.2131 155.071 40.092C154.145 40.9709 153.354 41.6154 152.698 42.0256C152.241 42.2834 151.649 42.5236 150.922 42.7463C150.442 42.8986 149.967 42.9748 149.499 42.9748C149.276 42.9748 148.936 42.9396 148.479 42.8693C148.022 42.7873 147.612 42.3713 147.249 41.6213L147.038 41.0939C146.897 40.6955 146.78 40.4963 146.686 40.4963C146.569 40.4963 146.364 40.7482 146.071 41.2521C144.958 42.9631 143.633 44.4103 142.098 45.5939C141.278 46.1682 140.487 46.5373 139.725 46.7014C139.573 46.7365 139.421 46.7541 139.268 46.7541Z"/>
<path d="M158.674 43.801H158.463C157.76 43.801 157.133 43.6428 156.583 43.3264C156.02 42.9982 155.657 42.3713 155.493 41.4455C155.446 41.1642 155.422 40.8771 155.422 40.5842C155.422 39.717 155.622 38.7912 156.02 37.8068C156.829 35.9553 157.878 34.6252 159.167 33.8166C159.87 33.3713 160.526 33.1486 161.135 33.1486C161.663 33.1486 162.155 33.3068 162.612 33.6232C163.198 34.0334 163.491 34.5783 163.491 35.258C163.491 36.3596 162.741 37.801 161.241 39.5822C160.538 40.4494 160.186 40.9592 160.186 41.1115C160.186 41.2053 160.251 41.2521 160.379 41.2521C160.872 41.2521 161.827 40.924 163.245 40.2678C164.663 39.6115 166.157 38.8381 167.727 37.9474C169.309 37.0451 170.657 36.1838 171.77 35.3635C172.063 35.1642 172.297 35.0646 172.473 35.0646C172.544 35.0646 172.608 35.0822 172.667 35.1174C172.796 35.2111 172.86 35.3693 172.86 35.592C172.86 35.6623 172.842 35.8029 172.807 36.0139C172.772 36.2248 172.614 36.5119 172.333 36.8752C171.512 37.7189 170.264 38.674 168.588 39.7404C166.924 40.7951 165.178 41.7209 163.35 42.5178C161.534 43.3029 159.975 43.7307 158.674 43.801ZM158.393 39.6525C158.604 39.6525 158.962 39.3303 159.465 38.6857C159.934 38.0881 160.315 37.4728 160.608 36.84C160.807 36.383 160.907 36.0432 160.907 35.8205C160.907 35.5978 160.784 35.4865 160.538 35.4865C160.338 35.4865 160.063 35.6271 159.712 35.9084C159.36 36.1896 159.038 36.6584 158.745 37.3146C158.37 38.2521 158.182 38.9084 158.182 39.2834C158.182 39.5295 158.253 39.6525 158.393 39.6525Z"/>
<path d="M165.512 47.8615C165.231 47.8615 164.973 47.8264 164.739 47.756C164.493 47.6974 164.34 47.6213 164.282 47.5275V47.4748C164.282 47.3224 164.364 47.0353 164.528 46.6135C164.692 46.2033 164.915 45.7404 165.196 45.2248C165.676 44.381 165.958 43.7717 166.04 43.3967C165.7 42.9396 165.401 42.4767 165.143 42.008C164.885 41.5275 164.756 41.0353 164.756 40.5314C164.756 40.0627 164.915 39.5705 165.231 39.0549C165.29 38.9728 165.366 38.9318 165.46 38.9318C165.647 38.9318 165.887 39.0432 166.18 39.2658C166.462 39.4767 166.737 39.6994 167.006 39.9338C167.405 40.2736 167.651 40.4553 167.745 40.4787C167.862 40.4553 168.284 39.8986 169.01 38.8088C170.077 37.1682 170.932 36.0021 171.577 35.3107C171.928 34.924 172.251 34.7307 172.544 34.7307C172.825 34.7307 173.129 34.8889 173.458 35.2053C173.669 35.3459 173.774 35.5275 173.774 35.7502C173.774 35.9846 173.633 36.3478 173.352 36.84C173.071 37.3205 172.596 38.0705 171.928 39.09C171.319 40.0275 170.809 40.8596 170.399 41.5861C169.977 42.3127 169.766 42.7404 169.766 42.8693C169.766 42.9865 169.919 43.092 170.223 43.1857C170.516 43.2678 170.885 43.3088 171.331 43.3088C172.128 43.3088 173.37 42.8752 175.057 42.008C176.745 41.1291 178.391 40.1623 179.997 39.1076C181.602 38.0529 182.751 37.1916 183.442 36.5236C184.145 35.8439 184.684 35.5041 185.059 35.5041C185.458 35.5041 185.657 35.8381 185.657 36.506C185.657 36.9865 184.889 37.8889 183.354 39.2131C181.819 40.5373 180.055 41.8088 178.063 43.0275C176.551 43.9533 175.198 44.6564 174.003 45.1369C172.819 45.6291 171.729 45.8752 170.733 45.8752C169.796 45.8752 168.905 45.6467 168.061 45.1896L167.323 46.5256C167.042 47.0178 166.772 47.3635 166.514 47.5627C166.256 47.7619 165.922 47.8615 165.512 47.8615Z"/>
</mask>
<g filter="url(#filter0_i)">
<path d="M139.268 46.7541C138.706 46.7541 138.231 46.5139 137.844 46.0334C137.68 45.7521 137.598 45.3771 137.598 44.9084C137.598 44.3459 137.78 43.4787 138.143 42.3068C138.495 41.1232 139.139 39.7697 140.077 38.2463C141.003 36.7111 141.975 35.5744 142.995 34.8361C143.967 34.2033 144.717 33.8869 145.245 33.8869C145.807 33.8869 146.088 34.1213 146.088 34.59C146.088 34.7307 146.03 34.9182 145.913 35.1525C145.796 35.3752 145.555 35.4865 145.192 35.4865C144.922 35.4865 144.524 35.7619 143.997 36.3127C143.469 36.8517 142.942 37.5139 142.415 38.299C141.876 39.0724 141.442 39.8283 141.114 40.5666C140.633 41.6916 140.311 42.6408 140.147 43.4142C140.077 43.7307 140.042 43.9885 140.042 44.1877C140.042 44.4455 140.112 44.5744 140.253 44.5744C140.698 44.5744 141.296 44.0822 142.046 43.0978C143.323 41.4103 144.963 38.633 146.967 34.7658C148.233 32.3049 149.411 29.8967 150.501 27.5412C152.118 23.9435 153.184 21.717 153.7 20.8615C154.004 20.3342 154.28 19.9767 154.526 19.7892C154.784 19.6017 155.077 19.508 155.405 19.508C155.78 19.508 155.991 19.5959 156.038 19.7717C156.049 19.8185 156.055 19.8771 156.055 19.9474C156.055 20.1349 155.991 20.381 155.862 20.6857C155.335 21.9748 154.292 24.3947 152.733 27.9455C151.678 30.301 150.893 32.1057 150.378 33.3596C149.862 34.6017 149.528 35.551 149.376 36.2072C149.235 36.8517 149.165 37.5021 149.165 38.1584C149.212 39.0373 149.387 39.6115 149.692 39.881C149.938 40.0803 150.231 40.1799 150.571 40.1799L150.87 40.1623C151.889 39.9865 152.821 39.5588 153.665 38.8791C154.508 38.1994 155.305 37.4494 156.055 36.6291C156.501 36.1721 156.934 35.7385 157.356 35.3283C157.684 35.0471 157.948 34.9064 158.147 34.9064C158.194 34.9064 158.282 34.9299 158.411 34.9767C158.54 35.0236 158.633 35.2346 158.692 35.6096C158.692 35.9494 158.323 36.5646 157.585 37.4553C156.846 38.3342 156.008 39.2131 155.071 40.092C154.145 40.9709 153.354 41.6154 152.698 42.0256C152.241 42.2834 151.649 42.5236 150.922 42.7463C150.442 42.8986 149.967 42.9748 149.499 42.9748C149.276 42.9748 148.936 42.9396 148.479 42.8693C148.022 42.7873 147.612 42.3713 147.249 41.6213L147.038 41.0939C146.897 40.6955 146.78 40.4963 146.686 40.4963C146.569 40.4963 146.364 40.7482 146.071 41.2521C144.958 42.9631 143.633 44.4103 142.098 45.5939C141.278 46.1682 140.487 46.5373 139.725 46.7014C139.573 46.7365 139.421 46.7541 139.268 46.7541Z" fill="#FD7114"/>
<path d="M158.674 43.801H158.463C157.76 43.801 157.133 43.6428 156.583 43.3264C156.02 42.9982 155.657 42.3713 155.493 41.4455C155.446 41.1642 155.422 40.8771 155.422 40.5842C155.422 39.717 155.622 38.7912 156.02 37.8068C156.829 35.9553 157.878 34.6252 159.167 33.8166C159.87 33.3713 160.526 33.1486 161.135 33.1486C161.663 33.1486 162.155 33.3068 162.612 33.6232C163.198 34.0334 163.491 34.5783 163.491 35.258C163.491 36.3596 162.741 37.801 161.241 39.5822C160.538 40.4494 160.186 40.9592 160.186 41.1115C160.186 41.2053 160.251 41.2521 160.379 41.2521C160.872 41.2521 161.827 40.924 163.245 40.2678C164.663 39.6115 166.157 38.8381 167.727 37.9474C169.309 37.0451 170.657 36.1838 171.77 35.3635C172.063 35.1642 172.297 35.0646 172.473 35.0646C172.544 35.0646 172.608 35.0822 172.667 35.1174C172.796 35.2111 172.86 35.3693 172.86 35.592C172.86 35.6623 172.842 35.8029 172.807 36.0139C172.772 36.2248 172.614 36.5119 172.333 36.8752C171.512 37.7189 170.264 38.674 168.588 39.7404C166.924 40.7951 165.178 41.7209 163.35 42.5178C161.534 43.3029 159.975 43.7307 158.674 43.801ZM158.393 39.6525C158.604 39.6525 158.962 39.3303 159.465 38.6857C159.934 38.0881 160.315 37.4728 160.608 36.84C160.807 36.383 160.907 36.0432 160.907 35.8205C160.907 35.5978 160.784 35.4865 160.538 35.4865C160.338 35.4865 160.063 35.6271 159.712 35.9084C159.36 36.1896 159.038 36.6584 158.745 37.3146C158.37 38.2521 158.182 38.9084 158.182 39.2834C158.182 39.5295 158.253 39.6525 158.393 39.6525Z" fill="#FD7114"/>
<path d="M165.512 47.8615C165.231 47.8615 164.973 47.8264 164.739 47.756C164.493 47.6974 164.34 47.6213 164.282 47.5275V47.4748C164.282 47.3224 164.364 47.0353 164.528 46.6135C164.692 46.2033 164.915 45.7404 165.196 45.2248C165.676 44.381 165.958 43.7717 166.04 43.3967C165.7 42.9396 165.401 42.4767 165.143 42.008C164.885 41.5275 164.756 41.0353 164.756 40.5314C164.756 40.0627 164.915 39.5705 165.231 39.0549C165.29 38.9728 165.366 38.9318 165.46 38.9318C165.647 38.9318 165.887 39.0432 166.18 39.2658C166.462 39.4767 166.737 39.6994 167.006 39.9338C167.405 40.2736 167.651 40.4553 167.745 40.4787C167.862 40.4553 168.284 39.8986 169.01 38.8088C170.077 37.1682 170.932 36.0021 171.577 35.3107C171.928 34.924 172.251 34.7307 172.544 34.7307C172.825 34.7307 173.129 34.8889 173.458 35.2053C173.669 35.3459 173.774 35.5275 173.774 35.7502C173.774 35.9846 173.633 36.3478 173.352 36.84C173.071 37.3205 172.596 38.0705 171.928 39.09C171.319 40.0275 170.809 40.8596 170.399 41.5861C169.977 42.3127 169.766 42.7404 169.766 42.8693C169.766 42.9865 169.919 43.092 170.223 43.1857C170.516 43.2678 170.885 43.3088 171.331 43.3088C172.128 43.3088 173.37 42.8752 175.057 42.008C176.745 41.1291 178.391 40.1623 179.997 39.1076C181.602 38.0529 182.751 37.1916 183.442 36.5236C184.145 35.8439 184.684 35.5041 185.059 35.5041C185.458 35.5041 185.657 35.8381 185.657 36.506C185.657 36.9865 184.889 37.8889 183.354 39.2131C181.819 40.5373 180.055 41.8088 178.063 43.0275C176.551 43.9533 175.198 44.6564 174.003 45.1369C172.819 45.6291 171.729 45.8752 170.733 45.8752C169.796 45.8752 168.905 45.6467 168.061 45.1896L167.323 46.5256C167.042 47.0178 166.772 47.3635 166.514 47.5627C166.256 47.7619 165.922 47.8615 165.512 47.8615Z" fill="#FD7114"/>
</g>
<path d="M139.268 46.7541C138.706 46.7541 138.231 46.5139 137.844 46.0334C137.68 45.7521 137.598 45.3771 137.598 44.9084C137.598 44.3459 137.78 43.4787 138.143 42.3068C138.495 41.1232 139.139 39.7697 140.077 38.2463C141.003 36.7111 141.975 35.5744 142.995 34.8361C143.967 34.2033 144.717 33.8869 145.245 33.8869C145.807 33.8869 146.088 34.1213 146.088 34.59C146.088 34.7307 146.03 34.9182 145.913 35.1525C145.796 35.3752 145.555 35.4865 145.192 35.4865C144.922 35.4865 144.524 35.7619 143.997 36.3127C143.469 36.8517 142.942 37.5139 142.415 38.299C141.876 39.0724 141.442 39.8283 141.114 40.5666C140.633 41.6916 140.311 42.6408 140.147 43.4142C140.077 43.7307 140.042 43.9885 140.042 44.1877C140.042 44.4455 140.112 44.5744 140.253 44.5744C140.698 44.5744 141.296 44.0822 142.046 43.0978C143.323 41.4103 144.963 38.633 146.967 34.7658C148.233 32.3049 149.411 29.8967 150.501 27.5412C152.118 23.9435 153.184 21.717 153.7 20.8615C154.004 20.3342 154.28 19.9767 154.526 19.7892C154.784 19.6017 155.077 19.508 155.405 19.508C155.78 19.508 155.991 19.5959 156.038 19.7717C156.049 19.8185 156.055 19.8771 156.055 19.9474C156.055 20.1349 155.991 20.381 155.862 20.6857C155.335 21.9748 154.292 24.3947 152.733 27.9455C151.678 30.301 150.893 32.1057 150.378 33.3596C149.862 34.6017 149.528 35.551 149.376 36.2072C149.235 36.8517 149.165 37.5021 149.165 38.1584C149.212 39.0373 149.387 39.6115 149.692 39.881C149.938 40.0803 150.231 40.1799 150.571 40.1799L150.87 40.1623C151.889 39.9865 152.821 39.5588 153.665 38.8791C154.508 38.1994 155.305 37.4494 156.055 36.6291C156.501 36.1721 156.934 35.7385 157.356 35.3283C157.684 35.0471 157.948 34.9064 158.147 34.9064C158.194 34.9064 158.282 34.9299 158.411 34.9767C158.54 35.0236 158.633 35.2346 158.692 35.6096C158.692 35.9494 158.323 36.5646 157.585 37.4553C156.846 38.3342 156.008 39.2131 155.071 40.092C154.145 40.9709 153.354 41.6154 152.698 42.0256C152.241 42.2834 151.649 42.5236 150.922 42.7463C150.442 42.8986 149.967 42.9748 149.499 42.9748C149.276 42.9748 148.936 42.9396 148.479 42.8693C148.022 42.7873 147.612 42.3713 147.249 41.6213L147.038 41.0939C146.897 40.6955 146.78 40.4963 146.686 40.4963C146.569 40.4963 146.364 40.7482 146.071 41.2521C144.958 42.9631 143.633 44.4103 142.098 45.5939C141.278 46.1682 140.487 46.5373 139.725 46.7014C139.573 46.7365 139.421 46.7541 139.268 46.7541Z" stroke="#2D70B7" stroke-width="3" mask="url(#path-68-outside-2)"/>
<path d="M158.674 43.801H158.463C157.76 43.801 157.133 43.6428 156.583 43.3264C156.02 42.9982 155.657 42.3713 155.493 41.4455C155.446 41.1642 155.422 40.8771 155.422 40.5842C155.422 39.717 155.622 38.7912 156.02 37.8068C156.829 35.9553 157.878 34.6252 159.167 33.8166C159.87 33.3713 160.526 33.1486 161.135 33.1486C161.663 33.1486 162.155 33.3068 162.612 33.6232C163.198 34.0334 163.491 34.5783 163.491 35.258C163.491 36.3596 162.741 37.801 161.241 39.5822C160.538 40.4494 160.186 40.9592 160.186 41.1115C160.186 41.2053 160.251 41.2521 160.379 41.2521C160.872 41.2521 161.827 40.924 163.245 40.2678C164.663 39.6115 166.157 38.8381 167.727 37.9474C169.309 37.0451 170.657 36.1838 171.77 35.3635C172.063 35.1642 172.297 35.0646 172.473 35.0646C172.544 35.0646 172.608 35.0822 172.667 35.1174C172.796 35.2111 172.86 35.3693 172.86 35.592C172.86 35.6623 172.842 35.8029 172.807 36.0139C172.772 36.2248 172.614 36.5119 172.333 36.8752C171.512 37.7189 170.264 38.674 168.588 39.7404C166.924 40.7951 165.178 41.7209 163.35 42.5178C161.534 43.3029 159.975 43.7307 158.674 43.801ZM158.393 39.6525C158.604 39.6525 158.962 39.3303 159.465 38.6857C159.934 38.0881 160.315 37.4728 160.608 36.84C160.807 36.383 160.907 36.0432 160.907 35.8205C160.907 35.5978 160.784 35.4865 160.538 35.4865C160.338 35.4865 160.063 35.6271 159.712 35.9084C159.36 36.1896 159.038 36.6584 158.745 37.3146C158.37 38.2521 158.182 38.9084 158.182 39.2834C158.182 39.5295 158.253 39.6525 158.393 39.6525Z" stroke="#2D70B7" stroke-width="3" mask="url(#path-68-outside-2)"/>
<path d="M165.512 47.8615C165.231 47.8615 164.973 47.8264 164.739 47.756C164.493 47.6974 164.34 47.6213 164.282 47.5275V47.4748C164.282 47.3224 164.364 47.0353 164.528 46.6135C164.692 46.2033 164.915 45.7404 165.196 45.2248C165.676 44.381 165.958 43.7717 166.04 43.3967C165.7 42.9396 165.401 42.4767 165.143 42.008C164.885 41.5275 164.756 41.0353 164.756 40.5314C164.756 40.0627 164.915 39.5705 165.231 39.0549C165.29 38.9728 165.366 38.9318 165.46 38.9318C165.647 38.9318 165.887 39.0432 166.18 39.2658C166.462 39.4767 166.737 39.6994 167.006 39.9338C167.405 40.2736 167.651 40.4553 167.745 40.4787C167.862 40.4553 168.284 39.8986 169.01 38.8088C170.077 37.1682 170.932 36.0021 171.577 35.3107C171.928 34.924 172.251 34.7307 172.544 34.7307C172.825 34.7307 173.129 34.8889 173.458 35.2053C173.669 35.3459 173.774 35.5275 173.774 35.7502C173.774 35.9846 173.633 36.3478 173.352 36.84C173.071 37.3205 172.596 38.0705 171.928 39.09C171.319 40.0275 170.809 40.8596 170.399 41.5861C169.977 42.3127 169.766 42.7404 169.766 42.8693C169.766 42.9865 169.919 43.092 170.223 43.1857C170.516 43.2678 170.885 43.3088 171.331 43.3088C172.128 43.3088 173.37 42.8752 175.057 42.008C176.745 41.1291 178.391 40.1623 179.997 39.1076C181.602 38.0529 182.751 37.1916 183.442 36.5236C184.145 35.8439 184.684 35.5041 185.059 35.5041C185.458 35.5041 185.657 35.8381 185.657 36.506C185.657 36.9865 184.889 37.8889 183.354 39.2131C181.819 40.5373 180.055 41.8088 178.063 43.0275C176.551 43.9533 175.198 44.6564 174.003 45.1369C172.819 45.6291 171.729 45.8752 170.733 45.8752C169.796 45.8752 168.905 45.6467 168.061 45.1896L167.323 46.5256C167.042 47.0178 166.772 47.3635 166.514 47.5627C166.256 47.7619 165.922 47.8615 165.512 47.8615Z" stroke="#2D70B7" stroke-width="3" mask="url(#path-68-outside-2)"/>
<defs>
<filter id="filter0_i" x="136.098" y="18.008" width="51.0586" height="31.3535" filterUnits="userSpaceOnUse" color-interpolation-filters="sRGB">
<feFlood flood-opacity="0" result="BackgroundImageFix"/>
<feBlend mode="normal" in="SourceGraphic" in2="BackgroundImageFix" result="shape"/>
<feColorMatrix in="SourceAlpha" type="matrix" values="0 0 0 0 0 0 0 0 0 0 0 0 0 0 0 0 0 0 127 0" result="hardAlpha"/>
<feOffset dx="1" dy="2.5"/>
<feComposite in2="hardAlpha" operator="arithmetic" k2="-1" k3="1"/>
<feColorMatrix type="matrix" values="0 0 0 0 0.72549 0 0 0 0 0.321569 0 0 0 0 0.0588235 0 0 0 1 0"/>
<feBlend mode="normal" in2="shape" result="effect1_innerShadow"/>
</filter>
<linearGradient id="paint0_linear" x1="6.90989" y1="27.6249" x2="1.75866" y2="17.9612" gradientUnits="userSpaceOnUse">
<stop stop-color="#0070B6"/>
<stop offset="1" stop-color="#1D2C5E"/>
</linearGradient>
<linearGradient id="paint1_linear" x1="70.3851" y1="7.94165" x2="76.9446" y2="0.866818" gradientUnits="userSpaceOnUse">
<stop stop-color="#0070B6"/>
<stop offset="1" stop-color="#1D2C5E"/>
</linearGradient>
<linearGradient id="paint2_linear" x1="41.5643" y1="19.6643" x2="40.7867" y2="13.0885" gradientUnits="userSpaceOnUse">
<stop stop-color="#0070B6"/>
<stop offset="1" stop-color="#1D2C5E"/>
</linearGradient>
<linearGradient id="paint3_linear" x1="113.726" y1="18.3987" x2="113.415" y2="12.4641" gradientUnits="userSpaceOnUse">
<stop stop-color="#125D9E"/>
<stop offset="1" stop-color="#1D2C5E"/>
</linearGradient>
<linearGradient id="paint4_linear" x1="91.6781" y1="9.84483" x2="84.8111" y2="20.8419" gradientUnits="userSpaceOnUse">
<stop stop-color="#125D9E"/>
<stop offset="1" stop-color="#1D2C5E"/>
</linearGradient>
<linearGradient id="paint5_linear" x1="30.3257" y1="27.4182" x2="35.0031" y2="36.6781" gradientUnits="userSpaceOnUse">
<stop stop-color="#105FA1"/>
<stop offset="1" stop-color="#1D2C5E"/>
</linearGradient>
<linearGradient id="paint6_linear" x1="12.4904" y1="24.266" x2="17.9002" y2="36.8902" gradientUnits="userSpaceOnUse">
<stop stop-color="#105FA1"/>
<stop offset="1" stop-color="#1D2C5E"/>
</linearGradient>
<linearGradient id="paint7_linear" x1="36.5004" y1="28.9459" x2="44.776" y2="28.9459" gradientUnits="userSpaceOnUse">
<stop stop-color="#3C5AA6"/>
<stop offset="0.9331" stop-color="#2B73B9"/>
<stop offset="1" stop-color="#2A75BB"/>
</linearGradient>
<linearGradient id="paint8_linear" x1="1.93614" y1="24.7141" x2="140" y2="24.7141" gradientUnits="userSpaceOnUse">
<stop stop-color="#3C5AA6"/>
<stop offset="0.9331" stop-color="#2B73B9"/>
<stop offset="1" stop-color="#2A75BB"/>
</linearGradient>
<clipPath id="clip0">
<rect width="140" height="51" fill="white"/>
</clipPath>
</defs>
</svg>
