<svg width="25" height="24" viewBox="0 0 25 24" fill="none" xmlns="http://www.w3.org/2000/svg">
<path fill-rule="evenodd" clip-rule="evenodd" d="M22.8204 0H1.22036C0.553689 0 0.0203552 0.533333 0.0203552 1.2V22.8C0.0203552 23.3333 0.553689 24 1.22036 24H22.8204C23.3537 24 24.0204 23.3333 24.0204 22.8V1.2C24.0204 0.533333 23.3537 0 22.8204 0ZM8.02036 5.33333H5.35369V8H8.02036V5.33333ZM18.687 5.33333H10.687V8H18.687V5.33333ZM18.687 10.6667H10.687V13.3333H18.687V10.6667ZM10.687 16H18.687V18.6667H10.687V16ZM5.35369 10.6667H8.02036V13.3333H5.35369V10.6667ZM8.02036 16H5.35369V18.6667H8.02036V16ZM2.68702 21.3333H21.3537V2.66667H2.68702V21.3333Z" fill="white"/>
</svg>
